<svg id="svg" version="1.1" xmlns="http://www.w3.org/2000/svg" xmlns:xlink="http://www.w3.org/1999/xlink" width="400" height="396.0317460317461" viewBox="0, 0, 400,396.0317460317461"><g id="svgg"><path id="path0" d="M130.845 77.008 C 130.723 77.326,130.731 77.760,130.862 77.973 C 130.994 78.186,131.097 132.640,131.092 198.982 L 131.083 319.604 134.056 319.604 C 135.775 319.604,137.030 319.437,137.030 319.208 C 137.030 318.989,138.059 318.812,139.327 318.812 C 140.590 318.812,141.793 318.648,142.000 318.447 C 142.207 318.246,144.426 317.977,146.931 317.848 C 156.903 317.337,159.025 317.159,159.386 316.805 C 159.593 316.602,161.108 316.436,162.752 316.436 C 164.397 316.436,168.553 316.227,171.989 315.970 L 178.235 315.504 178.127 280.821 L 178.020 246.139 176.483 241.386 C 175.638 238.772,174.792 236.324,174.602 235.946 C 174.413 235.568,174.257 234.899,174.257 234.461 C 174.257 234.022,174.079 233.663,173.861 233.663 C 173.644 233.663,173.465 233.317,173.465 232.895 C 173.465 232.472,173.287 232.016,173.069 231.881 C 172.851 231.747,172.673 231.212,172.673 230.693 C 172.673 230.174,172.495 229.640,172.277 229.505 C 172.059 229.370,171.881 228.836,171.881 228.317 C 171.881 227.798,171.703 227.263,171.485 227.129 C 171.267 226.994,171.089 226.459,171.089 225.941 C 171.089 225.422,170.911 224.887,170.693 224.752 C 170.475 224.618,170.297 224.083,170.297 223.564 C 170.297 223.046,170.119 222.511,169.901 222.376 C 169.683 222.242,169.505 221.732,169.505 221.244 C 169.505 220.756,169.347 220.187,169.154 219.980 C 168.961 219.773,168.132 217.465,167.312 214.851 C 166.492 212.238,164.981 207.426,163.953 204.158 C 162.214 198.629,161.293 195.488,160.413 192.079 C 160.216 191.317,159.795 189.713,159.477 188.515 C 159.159 187.317,158.593 185.178,158.218 183.762 C 157.843 182.347,157.276 180.208,156.958 179.010 C 156.641 177.812,156.228 176.208,156.042 175.446 C 153.586 165.380,150.529 153.643,150.243 153.180 C 150.038 152.848,149.032 149.132,148.069 145.149 C 147.147 141.332,146.964 140.634,146.152 137.822 C 145.679 136.188,145.145 134.228,144.963 133.465 C 144.782 132.703,144.243 130.743,143.765 129.109 C 143.287 127.475,142.802 125.515,142.688 124.752 C 142.574 123.990,142.353 123.188,142.198 122.970 C 142.042 122.752,141.678 121.505,141.389 120.198 C 141.099 118.891,140.713 117.652,140.530 117.446 C 140.348 117.239,140.198 116.492,140.198 115.786 C 140.198 115.080,140.020 114.392,139.802 114.257 C 139.584 114.123,139.406 113.515,139.406 112.907 C 139.406 112.299,139.249 111.285,139.056 110.653 C 138.682 109.427,138.053 107.070,137.453 104.653 C 137.251 103.837,136.805 102.188,136.464 100.990 C 136.122 99.792,135.682 98.010,135.485 97.030 C 135.288 96.050,134.754 93.880,134.298 92.208 C 132.852 86.899,132.337 84.356,132.708 84.356 C 132.907 84.356,133.069 84.802,133.069 85.347 C 133.069 85.891,133.248 86.337,133.465 86.337 C 133.683 86.337,133.861 86.695,133.861 87.134 C 133.861 87.573,134.019 88.241,134.211 88.619 C 134.865 89.904,135.986 92.837,138.033 98.614 C 139.124 101.694,149.400 130.368,152.155 138.020 C 153.018 140.416,153.871 142.822,154.052 143.366 C 154.472 144.632,158.055 154.704,159.194 157.822 C 159.671 159.129,160.209 160.644,160.390 161.188 C 160.570 161.733,161.642 164.762,162.772 167.921 C 163.902 171.079,164.972 174.109,165.149 174.653 C 165.325 175.198,166.395 178.228,167.525 181.386 C 168.655 184.545,169.727 187.574,169.908 188.119 C 170.089 188.663,170.973 191.158,171.872 193.663 C 172.771 196.168,173.774 199.020,174.100 200.000 C 174.426 200.980,174.854 202.139,175.050 202.574 C 175.245 203.010,175.672 204.168,175.998 205.149 C 177.362 209.252,178.310 211.733,178.812 212.515 C 179.106 212.973,179.797 214.666,180.347 216.277 C 180.897 217.889,182.080 221.257,182.976 223.762 C 183.873 226.267,184.939 229.297,185.346 230.495 C 185.752 231.693,186.828 234.723,187.735 237.228 C 188.643 239.733,189.533 242.228,189.712 242.772 C 189.892 243.317,190.777 245.812,191.679 248.317 C 192.581 250.822,193.652 253.851,194.059 255.050 C 194.687 256.899,195.811 260.053,198.578 267.723 C 198.853 268.485,202.793 279.566,207.334 292.346 L 215.591 315.583 217.796 315.829 C 219.008 315.965,223.653 316.245,228.119 316.453 C 232.584 316.660,237.931 317.011,240.000 317.233 C 242.069 317.455,245.812 317.811,248.317 318.024 C 250.822 318.237,254.475 318.598,256.436 318.825 C 258.396 319.052,261.069 319.338,262.376 319.461 L 264.752 319.684 264.652 198.258 L 264.552 76.832 241.417 76.832 C 228.693 76.832,218.001 76.940,217.656 77.072 C 215.697 77.824,216.965 152.837,218.981 155.437 C 219.153 155.659,219.410 156.451,219.552 157.195 C 219.693 157.940,220.236 159.455,220.758 160.562 C 221.280 161.669,221.827 163.109,221.973 163.762 C 222.120 164.416,222.476 165.485,222.766 166.139 C 223.055 166.792,223.412 167.861,223.558 168.515 C 223.704 169.168,224.058 170.238,224.344 170.891 C 224.630 171.545,225.087 172.930,225.358 173.971 C 225.629 175.011,226.005 175.957,226.193 176.073 C 226.381 176.189,226.535 176.709,226.535 177.228 C 226.535 177.747,226.713 178.281,226.931 178.416 C 227.149 178.550,227.327 179.085,227.327 179.604 C 227.327 180.123,227.471 180.636,227.647 180.745 C 227.824 180.854,228.212 182.112,228.510 183.541 C 228.808 184.970,229.183 186.139,229.343 186.139 C 229.503 186.139,229.757 186.896,229.907 187.822 C 230.058 188.748,230.403 190.040,230.674 190.693 C 231.111 191.747,232.797 197.145,234.878 204.158 C 235.266 205.465,235.869 207.782,236.218 209.307 C 236.567 210.832,237.122 213.059,237.450 214.257 C 237.778 215.455,238.291 217.327,238.590 218.416 C 238.889 219.505,239.353 221.376,239.620 222.574 C 239.887 223.772,240.419 225.911,240.802 227.327 C 241.184 228.743,241.718 230.792,241.988 231.881 C 242.258 232.970,242.915 235.376,243.447 237.228 C 243.980 239.079,244.564 241.218,244.746 241.980 C 245.965 247.094,248.025 254.981,248.314 255.644 C 248.504 256.079,248.930 257.505,249.261 258.812 C 249.592 260.119,250.241 262.525,250.704 264.158 C 251.166 265.792,251.709 267.797,251.910 268.614 C 252.112 269.431,252.466 270.856,252.698 271.782 C 252.929 272.708,253.219 274.000,253.341 274.653 C 253.464 275.307,253.691 276.020,253.845 276.238 C 253.999 276.455,254.361 277.703,254.651 279.010 C 254.940 280.317,255.327 281.555,255.509 281.762 C 255.692 281.969,255.842 282.580,255.842 283.120 C 255.842 283.660,256.015 284.649,256.228 285.318 C 256.440 285.987,256.872 287.604,257.188 288.911 C 257.504 290.218,258.135 292.624,258.590 294.257 C 259.044 295.891,259.580 298.030,259.779 299.010 C 259.979 299.990,260.776 303.192,261.550 306.125 C 262.474 309.624,262.824 311.592,262.568 311.848 C 262.312 312.104,262.178 311.870,262.178 311.168 C 262.178 310.580,262.000 310.099,261.782 310.099 C 261.564 310.099,261.386 309.689,261.386 309.188 C 261.386 308.687,261.244 308.108,261.071 307.901 C 260.898 307.694,260.529 306.812,260.253 305.941 C 259.976 305.069,259.601 304.000,259.418 303.564 C 258.916 302.362,257.692 299.015,255.438 292.673 C 254.316 289.515,252.268 283.812,250.888 280.000 C 249.507 276.188,247.368 270.218,246.133 266.733 C 241.093 252.511,235.455 236.616,233.067 229.901 C 231.673 225.980,229.267 219.208,227.720 214.851 C 226.174 210.495,224.012 204.436,222.916 201.386 C 221.820 198.337,220.596 194.861,220.196 193.663 C 218.825 189.562,217.073 184.947,216.472 183.860 C 216.142 183.262,215.607 181.970,215.283 180.990 C 214.960 180.010,213.963 177.158,213.069 174.653 C 212.175 172.149,211.177 169.297,210.850 168.317 C 210.524 167.337,210.100 166.178,209.907 165.743 C 209.714 165.307,209.177 163.792,208.713 162.376 C 208.249 160.960,207.714 159.446,207.525 159.010 C 207.336 158.574,206.801 157.059,206.337 155.644 C 205.872 154.228,205.335 152.713,205.142 152.277 C 204.950 151.842,204.525 150.683,204.199 149.703 C 203.873 148.723,202.871 145.871,201.972 143.366 C 201.073 140.861,199.452 136.317,198.370 133.267 C 197.287 130.218,195.859 126.208,195.196 124.356 C 194.533 122.505,193.841 120.545,193.659 120.000 C 193.477 119.455,192.589 116.960,191.687 114.455 C 190.785 111.950,189.715 108.921,189.308 107.723 C 188.901 106.525,187.827 103.495,186.922 100.990 C 186.017 98.485,184.948 95.455,184.546 94.257 C 184.144 93.059,183.459 91.099,183.024 89.901 C 182.588 88.703,181.531 85.749,180.676 83.337 C 179.820 80.924,178.870 78.429,178.564 77.792 L 178.009 76.634 154.538 76.532 C 134.260 76.443,131.036 76.508,130.845 77.008 " stroke="none" fill="#c5070f" fill-rule="evenodd"></path><path id="path1" d="M178.317 0.270 C 176.079 0.355,174.257 0.595,174.257 0.806 C 174.257 1.016,173.010 1.188,171.485 1.188 C 169.901 1.188,168.713 1.358,168.713 1.584 C 168.713 1.804,167.657 1.980,166.337 1.980 C 165.017 1.980,163.960 2.156,163.960 2.376 C 163.960 2.594,162.991 2.772,161.806 2.772 C 160.620 2.772,159.541 2.950,159.406 3.168 C 159.271 3.386,158.459 3.564,157.600 3.564 C 156.742 3.564,156.040 3.743,156.040 3.960 C 156.040 4.178,155.248 4.356,154.281 4.356 C 153.313 4.356,152.412 4.535,152.277 4.752 C 152.143 4.970,151.430 5.149,150.693 5.149 C 149.956 5.149,149.244 5.327,149.109 5.545 C 148.974 5.762,148.340 5.941,147.699 5.941 C 147.059 5.941,146.535 6.119,146.535 6.337 C 146.535 6.554,145.822 6.733,144.950 6.733 C 144.079 6.733,143.366 6.911,143.366 7.129 C 143.366 7.347,142.832 7.525,142.178 7.525 C 141.525 7.525,140.990 7.703,140.990 7.921 C 140.990 8.139,140.455 8.317,139.802 8.317 C 139.149 8.317,138.614 8.495,138.614 8.713 C 138.614 8.931,138.001 9.109,137.251 9.109 C 136.502 9.109,135.778 9.287,135.644 9.505 C 135.509 9.723,135.053 9.901,134.630 9.901 C 134.207 9.901,133.861 10.079,133.861 10.297 C 133.861 10.515,133.327 10.693,132.673 10.693 C 132.020 10.693,131.485 10.871,131.485 11.089 C 131.485 11.307,130.950 11.485,130.297 11.485 C 129.644 11.485,129.109 11.663,129.109 11.881 C 129.109 12.099,128.574 12.277,127.921 12.277 C 127.267 12.277,126.733 12.455,126.733 12.673 C 126.733 12.891,126.376 13.069,125.941 13.069 C 125.505 13.069,125.149 13.248,125.149 13.465 C 125.149 13.683,124.614 13.861,123.960 13.861 C 123.307 13.861,122.772 14.040,122.772 14.257 C 122.772 14.475,122.416 14.653,121.980 14.653 C 121.545 14.653,121.188 14.832,121.188 15.050 C 121.188 15.267,120.832 15.446,120.396 15.446 C 119.960 15.446,119.604 15.624,119.604 15.842 C 119.604 16.059,119.069 16.238,118.416 16.238 C 117.762 16.238,117.228 16.416,117.228 16.634 C 117.228 16.851,116.871 17.030,116.436 17.030 C 116.000 17.030,115.644 17.208,115.644 17.426 C 115.644 17.644,115.287 17.822,114.851 17.822 C 114.416 17.822,114.059 18.000,114.059 18.218 C 114.059 18.436,113.703 18.614,113.267 18.614 C 112.832 18.614,112.475 18.792,112.475 19.010 C 112.475 19.228,112.119 19.406,111.683 19.406 C 111.248 19.406,110.891 19.584,110.891 19.802 C 110.891 20.020,110.535 20.198,110.099 20.198 C 109.663 20.198,109.307 20.376,109.307 20.594 C 109.307 20.812,108.950 20.990,108.515 20.990 C 108.079 20.990,107.723 21.168,107.723 21.386 C 107.723 21.604,107.366 21.782,106.931 21.782 C 106.495 21.782,106.139 21.960,106.139 22.178 C 106.139 22.396,105.782 22.574,105.347 22.574 C 104.911 22.574,104.554 22.752,104.554 22.970 C 104.554 23.188,104.198 23.366,103.762 23.366 C 103.327 23.366,102.970 23.545,102.970 23.762 C 102.970 23.980,102.737 24.158,102.451 24.158 C 102.165 24.158,101.549 24.515,101.081 24.950 C 100.614 25.386,99.956 25.743,99.621 25.743 C 99.285 25.743,99.010 25.921,99.010 26.139 C 99.010 26.356,98.653 26.535,98.218 26.535 C 97.782 26.535,97.426 26.713,97.426 26.931 C 97.426 27.149,97.192 27.327,96.906 27.327 C 96.621 27.327,96.004 27.683,95.537 28.119 C 95.069 28.554,94.493 28.911,94.257 28.911 C 94.021 28.911,93.446 29.267,92.978 29.703 C 92.510 30.139,91.894 30.495,91.608 30.495 C 91.323 30.495,91.089 30.653,91.089 30.846 C 91.089 31.039,90.472 31.489,89.719 31.847 C 88.965 32.205,87.584 33.072,86.650 33.773 C 85.715 34.475,84.460 35.302,83.861 35.611 C 83.262 35.921,82.772 36.322,82.772 36.503 C 82.772 36.684,82.596 36.832,82.381 36.832 C 82.013 36.832,80.976 37.584,79.786 38.713 C 79.499 38.985,79.165 39.208,79.043 39.208 C 78.822 39.208,77.607 40.150,76.618 41.089 C 76.331 41.361,75.993 41.584,75.866 41.584 C 75.671 41.584,74.644 42.424,72.717 44.158 C 72.475 44.376,71.634 45.035,70.847 45.622 C 70.061 46.209,68.700 47.367,67.824 48.196 C 66.948 49.025,65.542 50.265,64.699 50.953 C 61.399 53.648,53.611 61.608,47.921 68.105 C 46.723 69.473,45.520 70.825,45.248 71.109 C 44.975 71.394,44.752 71.730,44.752 71.856 C 44.752 72.066,43.291 73.827,42.079 75.076 C 41.807 75.357,41.584 75.698,41.584 75.835 C 41.584 75.971,41.050 76.652,40.398 77.348 C 39.745 78.044,39.211 78.745,39.210 78.906 C 39.208 79.188,38.356 80.318,37.327 81.402 C 37.054 81.689,36.832 82.115,36.832 82.348 C 36.832 82.581,36.698 82.773,36.535 82.774 C 36.371 82.775,35.614 83.755,34.851 84.950 C 34.089 86.146,33.332 87.126,33.168 87.127 C 33.005 87.128,32.871 87.362,32.871 87.648 C 32.871 87.934,32.559 88.521,32.178 88.952 C 31.299 89.948,30.116 91.872,29.830 92.772 C 29.709 93.153,29.453 93.465,29.261 93.465 C 29.068 93.465,28.911 93.699,28.911 93.985 C 28.911 94.270,28.554 94.887,28.119 95.354 C 27.683 95.822,27.327 96.479,27.327 96.815 C 27.327 97.151,27.149 97.426,26.931 97.426 C 26.713 97.426,26.535 97.701,26.535 98.036 C 26.535 98.372,26.178 99.030,25.743 99.497 C 25.307 99.965,24.950 100.581,24.950 100.867 C 24.950 101.152,24.772 101.386,24.554 101.386 C 24.337 101.386,24.158 101.743,24.158 102.178 C 24.158 102.614,23.980 102.970,23.762 102.970 C 23.545 102.970,23.366 103.327,23.366 103.762 C 23.366 104.198,23.188 104.554,22.970 104.554 C 22.752 104.554,22.574 104.911,22.574 105.347 C 22.574 105.782,22.396 106.139,22.178 106.139 C 21.960 106.139,21.782 106.495,21.782 106.931 C 21.782 107.366,21.604 107.723,21.386 107.723 C 21.168 107.723,20.990 108.079,20.990 108.515 C 20.990 108.950,20.812 109.307,20.594 109.307 C 20.376 109.307,20.198 109.663,20.198 110.099 C 20.198 110.535,20.020 110.891,19.802 110.891 C 19.584 110.891,19.406 111.248,19.406 111.683 C 19.406 112.119,19.228 112.475,19.010 112.475 C 18.792 112.475,18.614 112.832,18.614 113.267 C 18.614 113.703,18.436 114.059,18.218 114.059 C 18.000 114.059,17.822 114.416,17.822 114.851 C 17.822 115.287,17.644 115.644,17.426 115.644 C 17.208 115.644,17.030 116.000,17.030 116.436 C 17.030 116.871,16.851 117.228,16.634 117.228 C 16.416 117.228,16.238 117.574,16.238 117.996 C 16.238 118.419,16.059 118.875,15.842 119.010 C 15.624 119.145,15.446 119.690,15.446 120.221 C 15.446 120.753,15.267 121.188,15.050 121.188 C 14.832 121.188,14.653 121.545,14.653 121.980 C 14.653 122.416,14.475 122.772,14.257 122.772 C 14.040 122.772,13.861 123.307,13.861 123.960 C 13.861 124.614,13.683 125.149,13.465 125.149 C 13.248 125.149,13.069 125.505,13.069 125.941 C 13.069 126.376,12.891 126.733,12.673 126.733 C 12.455 126.733,12.277 127.267,12.277 127.921 C 12.277 128.574,12.099 129.109,11.881 129.109 C 11.663 129.109,11.485 129.644,11.485 130.297 C 11.485 130.950,11.307 131.485,11.089 131.485 C 10.871 131.485,10.693 131.831,10.693 132.254 C 10.693 132.677,10.515 133.133,10.297 133.267 C 10.079 133.402,9.901 133.937,9.901 134.455 C 9.901 134.974,9.723 135.509,9.505 135.644 C 9.287 135.778,9.109 136.313,9.109 136.832 C 9.109 137.351,8.931 137.885,8.713 138.020 C 8.495 138.154,8.317 138.878,8.317 139.627 C 8.317 140.377,8.139 140.990,7.921 140.990 C 7.703 140.990,7.525 141.525,7.525 142.178 C 7.525 142.832,7.347 143.366,7.129 143.366 C 6.911 143.366,6.733 144.079,6.733 144.950 C 6.733 145.822,6.554 146.535,6.337 146.535 C 6.119 146.535,5.941 147.248,5.941 148.119 C 5.941 148.990,5.762 149.703,5.545 149.703 C 5.327 149.703,5.149 150.416,5.149 151.287 C 5.149 152.158,4.970 152.871,4.752 152.871 C 4.535 152.871,4.356 153.584,4.356 154.455 C 4.356 155.327,4.178 156.040,3.960 156.040 C 3.743 156.040,3.564 156.931,3.564 158.020 C 3.564 159.109,3.386 160.000,3.168 160.000 C 2.948 160.000,2.772 161.056,2.772 162.376 C 2.772 163.696,2.596 164.752,2.376 164.752 C 2.156 164.752,1.980 165.809,1.980 167.129 C 1.980 168.449,1.804 169.505,1.584 169.505 C 1.353 169.505,1.188 170.814,1.188 172.640 C 1.188 174.796,1.034 175.827,0.693 175.941 C 0.305 176.070,0.198 180.840,0.198 198.020 C 0.198 215.199,0.305 219.970,0.693 220.099 C 1.034 220.212,1.188 221.243,1.188 223.399 C 1.188 225.226,1.353 226.535,1.584 226.535 C 1.804 226.535,1.980 227.591,1.980 228.911 C 1.980 230.231,2.156 231.287,2.376 231.287 C 2.596 231.287,2.772 232.343,2.772 233.663 C 2.772 234.983,2.948 236.040,3.168 236.040 C 3.386 236.040,3.564 236.931,3.564 238.020 C 3.564 239.109,3.743 240.000,3.960 240.000 C 4.178 240.000,4.356 240.713,4.356 241.584 C 4.356 242.455,4.535 243.168,4.752 243.168 C 4.970 243.168,5.149 243.881,5.149 244.752 C 5.149 245.624,5.327 246.337,5.545 246.337 C 5.762 246.337,5.941 247.050,5.941 247.921 C 5.941 248.792,6.119 249.505,6.337 249.505 C 6.554 249.505,6.733 250.218,6.733 251.089 C 6.733 251.960,6.911 252.673,7.129 252.673 C 7.347 252.673,7.525 253.208,7.525 253.861 C 7.525 254.515,7.703 255.050,7.921 255.050 C 8.139 255.050,8.317 255.663,8.317 256.412 C 8.317 257.162,8.495 257.885,8.713 258.020 C 8.931 258.154,9.109 258.689,9.109 259.208 C 9.109 259.727,9.287 260.261,9.505 260.396 C 9.723 260.531,9.901 261.065,9.901 261.584 C 9.901 262.103,10.079 262.638,10.297 262.772 C 10.515 262.907,10.693 263.363,10.693 263.786 C 10.693 264.209,10.871 264.554,11.089 264.554 C 11.307 264.554,11.485 265.089,11.485 265.743 C 11.485 266.396,11.663 266.931,11.881 266.931 C 12.099 266.931,12.277 267.465,12.277 268.119 C 12.277 268.772,12.455 269.307,12.673 269.307 C 12.891 269.307,13.069 269.663,13.069 270.099 C 13.069 270.535,13.248 270.891,13.465 270.891 C 13.683 270.891,13.861 271.426,13.861 272.079 C 13.861 272.733,14.040 273.267,14.257 273.267 C 14.475 273.267,14.653 273.624,14.653 274.059 C 14.653 274.495,14.832 274.851,15.050 274.851 C 15.267 274.851,15.446 275.287,15.446 275.818 C 15.446 276.350,15.624 276.895,15.842 277.030 C 16.059 277.164,16.238 277.620,16.238 278.043 C 16.238 278.466,16.416 278.812,16.634 278.812 C 16.851 278.812,17.030 279.168,17.030 279.604 C 17.030 280.040,17.208 280.396,17.426 280.396 C 17.644 280.396,17.822 280.752,17.822 281.188 C 17.822 281.624,18.000 281.980,18.218 281.980 C 18.436 281.980,18.614 282.337,18.614 282.772 C 18.614 283.208,18.792 283.564,19.010 283.564 C 19.228 283.564,19.406 283.921,19.406 284.356 C 19.406 284.792,19.584 285.149,19.802 285.149 C 20.020 285.149,20.198 285.505,20.198 285.941 C 20.198 286.376,20.376 286.733,20.594 286.733 C 20.812 286.733,20.990 287.089,20.990 287.525 C 20.990 287.960,21.168 288.317,21.386 288.317 C 21.604 288.317,21.782 288.673,21.782 289.109 C 21.782 289.545,21.960 289.901,22.178 289.901 C 22.396 289.901,22.574 290.257,22.574 290.693 C 22.574 291.129,22.752 291.485,22.970 291.485 C 23.188 291.485,23.366 291.842,23.366 292.277 C 23.366 292.713,23.545 293.069,23.762 293.069 C 23.980 293.069,24.158 293.426,24.158 293.861 C 24.158 294.297,24.292 294.655,24.455 294.657 C 24.619 294.658,24.949 295.059,25.188 295.548 C 26.406 298.028,27.596 300.078,28.218 300.767 C 28.599 301.190,28.911 301.693,28.911 301.885 C 28.911 302.076,29.446 303.011,30.099 303.960 C 30.752 304.910,31.287 305.796,31.287 305.930 C 31.287 306.063,31.644 306.554,32.079 307.022 C 32.515 307.490,32.871 308.106,32.871 308.392 C 32.871 308.677,33.005 308.912,33.168 308.913 C 33.332 308.914,34.089 309.893,34.851 311.089 C 35.614 312.285,36.371 313.264,36.535 313.265 C 36.698 313.266,36.832 313.444,36.832 313.659 C 36.832 314.027,37.584 315.064,38.713 316.254 C 38.985 316.540,39.209 316.921,39.210 317.100 C 39.211 317.279,39.745 317.995,40.398 318.691 C 41.050 319.388,41.584 320.054,41.584 320.172 C 41.584 320.428,42.627 321.724,43.861 323.002 C 44.351 323.509,44.752 324.034,44.752 324.169 C 44.752 324.303,44.975 324.646,45.248 324.930 C 45.520 325.215,46.723 326.567,47.921 327.935 C 53.611 334.431,61.399 342.392,64.699 345.087 C 65.542 345.774,66.948 347.015,67.824 347.844 C 68.700 348.672,70.058 349.831,70.842 350.418 C 72.278 351.494,74.134 353.046,75.076 353.960 C 75.357 354.233,75.687 354.455,75.809 354.455 C 76.030 354.455,77.244 355.397,78.234 356.337 C 78.521 356.609,78.855 356.832,78.977 356.832 C 79.198 356.832,80.413 357.774,81.402 358.713 C 81.689 358.985,82.115 359.208,82.348 359.208 C 82.581 359.208,82.772 359.356,82.772 359.537 C 82.772 359.718,83.262 360.119,83.861 360.428 C 84.460 360.737,85.715 361.564,86.650 362.266 C 87.584 362.968,88.965 363.835,89.719 364.192 C 90.472 364.550,91.089 365.001,91.089 365.194 C 91.089 365.387,91.323 365.545,91.608 365.545 C 91.894 365.545,92.510 365.901,92.978 366.337 C 93.446 366.772,94.021 367.129,94.257 367.129 C 94.493 367.129,95.069 367.485,95.537 367.921 C 96.004 368.356,96.621 368.713,96.906 368.713 C 97.192 368.713,97.426 368.891,97.426 369.109 C 97.426 369.327,97.782 369.505,98.218 369.505 C 98.653 369.505,99.010 369.683,99.010 369.901 C 99.010 370.119,99.285 370.297,99.621 370.297 C 99.956 370.297,100.614 370.653,101.081 371.089 C 101.549 371.525,102.165 371.881,102.451 371.881 C 102.737 371.881,102.970 372.059,102.970 372.277 C 102.970 372.495,103.327 372.673,103.762 372.673 C 104.198 372.673,104.554 372.851,104.554 373.069 C 104.554 373.287,104.911 373.465,105.347 373.465 C 105.782 373.465,106.139 373.644,106.139 373.861 C 106.139 374.079,106.495 374.257,106.931 374.257 C 107.366 374.257,107.723 374.436,107.723 374.653 C 107.723 374.871,108.079 375.050,108.515 375.050 C 108.950 375.050,109.307 375.228,109.307 375.446 C 109.307 375.663,109.663 375.842,110.099 375.842 C 110.535 375.842,110.891 376.020,110.891 376.238 C 110.891 376.455,111.248 376.634,111.683 376.634 C 112.119 376.634,112.475 376.812,112.475 377.030 C 112.475 377.248,112.832 377.426,113.267 377.426 C 113.703 377.426,114.059 377.604,114.059 377.822 C 114.059 378.040,114.416 378.218,114.851 378.218 C 115.287 378.218,115.644 378.396,115.644 378.614 C 115.644 378.832,116.000 379.010,116.436 379.010 C 116.871 379.010,117.228 379.188,117.228 379.406 C 117.228 379.624,117.762 379.802,118.416 379.802 C 119.069 379.802,119.604 379.980,119.604 380.198 C 119.604 380.416,119.960 380.594,120.396 380.594 C 120.832 380.594,121.188 380.772,121.188 380.990 C 121.188 381.208,121.545 381.386,121.980 381.386 C 122.416 381.386,122.772 381.564,122.772 381.782 C 122.772 382.000,123.307 382.178,123.960 382.178 C 124.614 382.178,125.149 382.356,125.149 382.574 C 125.149 382.792,125.505 382.970,125.941 382.970 C 126.376 382.970,126.733 383.149,126.733 383.366 C 126.733 383.584,127.267 383.762,127.921 383.762 C 128.574 383.762,129.109 383.941,129.109 384.158 C 129.109 384.376,129.644 384.554,130.297 384.554 C 130.950 384.554,131.485 384.733,131.485 384.950 C 131.485 385.168,132.020 385.347,132.673 385.347 C 133.327 385.347,133.861 385.525,133.861 385.743 C 133.861 385.960,134.207 386.139,134.630 386.139 C 135.053 386.139,135.509 386.317,135.644 386.535 C 135.778 386.752,136.502 386.931,137.251 386.931 C 138.001 386.931,138.614 387.109,138.614 387.327 C 138.614 387.545,139.149 387.723,139.802 387.723 C 140.455 387.723,140.990 387.901,140.990 388.119 C 140.990 388.337,141.525 388.515,142.178 388.515 C 142.832 388.515,143.366 388.693,143.366 388.911 C 143.366 389.129,144.079 389.307,144.950 389.307 C 145.822 389.307,146.535 389.485,146.535 389.703 C 146.535 389.921,147.059 390.099,147.699 390.099 C 148.340 390.099,148.974 390.277,149.109 390.495 C 149.244 390.713,149.956 390.891,150.693 390.891 C 151.430 390.891,152.143 391.069,152.277 391.287 C 152.412 391.505,153.313 391.683,154.281 391.683 C 155.248 391.683,156.040 391.861,156.040 392.079 C 156.040 392.297,156.742 392.475,157.600 392.475 C 158.459 392.475,159.271 392.653,159.406 392.871 C 159.541 393.089,160.620 393.267,161.806 393.267 C 162.991 393.267,163.960 393.446,163.960 393.663 C 163.960 393.883,165.017 394.059,166.337 394.059 C 167.657 394.059,168.713 394.235,168.713 394.455 C 168.713 394.681,169.890 394.851,171.452 394.851 C 173.292 394.851,174.246 395.014,174.356 395.347 C 174.486 395.736,179.969 395.842,200.000 395.842 C 220.031 395.842,225.514 395.736,225.644 395.347 C 225.754 395.014,226.708 394.851,228.548 394.851 C 230.110 394.851,231.287 394.681,231.287 394.455 C 231.287 394.235,232.343 394.059,233.663 394.059 C 234.983 394.059,236.040 393.883,236.040 393.663 C 236.040 393.446,237.009 393.267,238.194 393.267 C 239.380 393.267,240.459 393.089,240.594 392.871 C 240.729 392.653,241.541 392.475,242.400 392.475 C 243.258 392.475,243.960 392.297,243.960 392.079 C 243.960 391.861,244.752 391.683,245.719 391.683 C 246.687 391.683,247.588 391.505,247.723 391.287 C 247.857 391.069,248.570 390.891,249.307 390.891 C 250.044 390.891,250.756 390.713,250.891 390.495 C 251.026 390.277,251.660 390.099,252.301 390.099 C 252.941 390.099,253.465 389.921,253.465 389.703 C 253.465 389.485,254.178 389.307,255.050 389.307 C 255.921 389.307,256.634 389.129,256.634 388.911 C 256.634 388.693,257.168 388.515,257.822 388.515 C 258.475 388.515,259.010 388.337,259.010 388.119 C 259.010 387.901,259.545 387.723,260.198 387.723 C 260.851 387.723,261.386 387.545,261.386 387.327 C 261.386 387.109,261.999 386.931,262.749 386.931 C 263.498 386.931,264.222 386.752,264.356 386.535 C 264.491 386.317,264.947 386.139,265.370 386.139 C 265.793 386.139,266.139 385.960,266.139 385.743 C 266.139 385.525,266.673 385.347,267.327 385.347 C 267.980 385.347,268.515 385.168,268.515 384.950 C 268.515 384.733,269.050 384.554,269.703 384.554 C 270.356 384.554,270.891 384.376,270.891 384.158 C 270.891 383.941,271.426 383.762,272.079 383.762 C 272.733 383.762,273.267 383.584,273.267 383.366 C 273.267 383.149,273.624 382.970,274.059 382.970 C 274.495 382.970,274.851 382.792,274.851 382.574 C 274.851 382.356,275.386 382.178,276.040 382.178 C 276.693 382.178,277.228 382.000,277.228 381.782 C 277.228 381.564,277.584 381.386,278.020 381.386 C 278.455 381.386,278.812 381.208,278.812 380.990 C 278.812 380.772,279.168 380.594,279.604 380.594 C 280.040 380.594,280.396 380.416,280.396 380.198 C 280.396 379.980,280.931 379.802,281.584 379.802 C 282.238 379.802,282.772 379.624,282.772 379.406 C 282.772 379.188,283.129 379.010,283.564 379.010 C 284.000 379.010,284.356 378.832,284.356 378.614 C 284.356 378.396,284.713 378.218,285.149 378.218 C 285.584 378.218,285.941 378.040,285.941 377.822 C 285.941 377.604,286.297 377.426,286.733 377.426 C 287.168 377.426,287.525 377.248,287.525 377.030 C 287.525 376.812,287.881 376.634,288.317 376.634 C 288.752 376.634,289.109 376.455,289.109 376.238 C 289.109 376.020,289.465 375.842,289.901 375.842 C 290.337 375.842,290.693 375.663,290.693 375.446 C 290.693 375.228,291.050 375.050,291.485 375.050 C 291.921 375.050,292.277 374.871,292.277 374.653 C 292.277 374.436,292.634 374.257,293.069 374.257 C 293.505 374.257,293.861 374.079,293.861 373.861 C 293.861 373.644,294.218 373.465,294.653 373.465 C 295.089 373.465,295.446 373.287,295.446 373.069 C 295.446 372.851,295.802 372.673,296.238 372.673 C 296.673 372.673,297.030 372.495,297.030 372.277 C 297.030 372.059,297.263 371.881,297.549 371.881 C 297.835 371.881,298.451 371.525,298.919 371.089 C 299.386 370.653,299.957 370.297,300.187 370.297 C 300.592 370.297,302.173 369.510,302.574 369.109 C 302.966 368.717,305.163 367.471,305.842 367.256 C 306.223 367.135,306.535 366.879,306.535 366.686 C 306.535 366.494,306.802 366.337,307.129 366.337 C 307.455 366.337,307.723 366.158,307.723 365.941 C 307.723 365.723,307.956 365.545,308.242 365.545 C 308.528 365.545,309.144 365.188,309.612 364.752 C 310.079 364.317,310.571 363.960,310.704 363.960 C 310.955 363.960,314.501 361.612,314.851 361.214 C 314.960 361.090,315.540 360.736,316.139 360.427 C 316.738 360.119,317.228 359.718,317.228 359.537 C 317.228 359.356,317.404 359.208,317.619 359.208 C 317.987 359.208,319.024 358.456,320.214 357.327 C 320.501 357.054,320.835 356.832,320.957 356.832 C 321.162 356.832,322.232 356.016,323.312 355.036 C 323.559 354.811,324.386 354.196,325.149 353.669 C 325.911 353.142,326.802 352.433,327.129 352.094 C 327.455 351.754,328.366 350.998,329.153 350.413 C 329.939 349.829,331.300 348.672,332.176 347.844 C 333.052 347.015,334.458 345.774,335.301 345.087 C 338.601 342.392,346.389 334.431,352.079 327.935 C 353.277 326.567,354.480 325.215,354.752 324.930 C 355.025 324.646,355.248 324.303,355.248 324.169 C 355.248 324.034,355.649 323.509,356.139 323.002 C 357.373 321.724,358.416 320.428,358.416 320.172 C 358.416 320.054,358.950 319.388,359.602 318.691 C 360.255 317.995,360.789 317.294,360.790 317.133 C 360.792 316.851,361.644 315.722,362.673 314.638 C 362.946 314.351,363.168 313.925,363.168 313.692 C 363.168 313.458,363.302 313.266,363.465 313.265 C 363.629 313.264,364.386 312.285,365.149 311.089 C 365.911 309.893,366.668 308.914,366.832 308.913 C 366.995 308.912,367.129 308.677,367.129 308.392 C 367.129 308.106,367.485 307.490,367.921 307.022 C 368.356 306.554,368.713 306.063,368.713 305.930 C 368.713 305.796,369.248 304.910,369.901 303.960 C 370.554 303.011,371.089 302.076,371.089 301.885 C 371.089 301.693,371.401 301.190,371.782 300.767 C 372.404 300.078,373.594 298.028,374.812 295.548 C 375.051 295.059,375.381 294.658,375.545 294.657 C 375.708 294.655,375.842 294.297,375.842 293.861 C 375.842 293.426,376.020 293.069,376.238 293.069 C 376.455 293.069,376.634 292.713,376.634 292.277 C 376.634 291.842,376.812 291.485,377.030 291.485 C 377.248 291.485,377.426 291.129,377.426 290.693 C 377.426 290.257,377.604 289.901,377.822 289.901 C 378.040 289.901,378.218 289.545,378.218 289.109 C 378.218 288.673,378.396 288.317,378.614 288.317 C 378.832 288.317,379.010 287.960,379.010 287.525 C 379.010 287.089,379.188 286.733,379.406 286.733 C 379.624 286.733,379.802 286.376,379.802 285.941 C 379.802 285.505,379.980 285.149,380.198 285.149 C 380.416 285.149,380.594 284.792,380.594 284.356 C 380.594 283.921,380.772 283.564,380.990 283.564 C 381.208 283.564,381.386 283.208,381.386 282.772 C 381.386 282.337,381.564 281.980,381.782 281.980 C 382.000 281.980,382.178 281.624,382.178 281.188 C 382.178 280.752,382.356 280.396,382.574 280.396 C 382.792 280.396,382.970 280.040,382.970 279.604 C 382.970 279.168,383.149 278.812,383.366 278.812 C 383.584 278.812,383.762 278.466,383.762 278.043 C 383.762 277.620,383.941 277.164,384.158 277.030 C 384.376 276.895,384.554 276.350,384.554 275.818 C 384.554 275.287,384.733 274.851,384.950 274.851 C 385.168 274.851,385.347 274.495,385.347 274.059 C 385.347 273.624,385.525 273.267,385.743 273.267 C 385.960 273.267,386.139 272.733,386.139 272.079 C 386.139 271.426,386.317 270.891,386.535 270.891 C 386.752 270.891,386.931 270.535,386.931 270.099 C 386.931 269.663,387.109 269.307,387.327 269.307 C 387.545 269.307,387.723 268.772,387.723 268.119 C 387.723 267.465,387.901 266.931,388.119 266.931 C 388.337 266.931,388.515 266.396,388.515 265.743 C 388.515 265.089,388.693 264.554,388.911 264.554 C 389.129 264.554,389.307 264.209,389.307 263.786 C 389.307 263.363,389.485 262.907,389.703 262.772 C 389.921 262.638,390.099 262.103,390.099 261.584 C 390.099 261.065,390.277 260.531,390.495 260.396 C 390.713 260.261,390.891 259.727,390.891 259.208 C 390.891 258.689,391.069 258.154,391.287 258.020 C 391.505 257.885,391.683 257.162,391.683 256.412 C 391.683 255.663,391.861 255.050,392.079 255.050 C 392.297 255.050,392.475 254.515,392.475 253.861 C 392.475 253.208,392.653 252.673,392.871 252.673 C 393.089 252.673,393.267 251.960,393.267 251.089 C 393.267 250.218,393.446 249.505,393.663 249.505 C 393.881 249.505,394.059 248.792,394.059 247.921 C 394.059 247.050,394.238 246.337,394.455 246.337 C 394.673 246.337,394.851 245.624,394.851 244.752 C 394.851 243.881,395.030 243.168,395.248 243.168 C 395.465 243.168,395.644 242.455,395.644 241.584 C 395.644 240.713,395.822 240.000,396.040 240.000 C 396.257 240.000,396.436 239.109,396.436 238.020 C 396.436 236.931,396.614 236.040,396.832 236.040 C 397.052 236.040,397.228 234.983,397.228 233.663 C 397.228 232.343,397.404 231.287,397.624 231.287 C 397.844 231.287,398.020 230.231,398.020 228.911 C 398.020 227.591,398.196 226.535,398.416 226.535 C 398.647 226.535,398.812 225.226,398.812 223.399 C 398.812 221.243,398.966 220.212,399.307 220.099 C 400.031 219.858,400.031 176.182,399.307 175.941 C 398.966 175.827,398.812 174.796,398.812 172.640 C 398.812 170.814,398.647 169.505,398.416 169.505 C 398.196 169.505,398.020 168.449,398.020 167.129 C 398.020 165.809,397.844 164.752,397.624 164.752 C 397.404 164.752,397.228 163.696,397.228 162.376 C 397.228 161.056,397.052 160.000,396.832 160.000 C 396.614 160.000,396.436 159.109,396.436 158.020 C 396.436 156.931,396.257 156.040,396.040 156.040 C 395.822 156.040,395.644 155.327,395.644 154.455 C 395.644 153.584,395.465 152.871,395.248 152.871 C 395.030 152.871,394.851 152.158,394.851 151.287 C 394.851 150.416,394.673 149.703,394.455 149.703 C 394.238 149.703,394.059 148.990,394.059 148.119 C 394.059 147.248,393.881 146.535,393.663 146.535 C 393.446 146.535,393.267 145.822,393.267 144.950 C 393.267 144.079,393.089 143.366,392.871 143.366 C 392.653 143.366,392.475 142.832,392.475 142.178 C 392.475 141.525,392.297 140.990,392.079 140.990 C 391.861 140.990,391.683 140.377,391.683 139.627 C 391.683 138.878,391.505 138.154,391.287 138.020 C 391.069 137.885,390.891 137.351,390.891 136.832 C 390.891 136.313,390.713 135.778,390.495 135.644 C 390.277 135.509,390.099 134.974,390.099 134.455 C 390.099 133.937,389.921 133.402,389.703 133.267 C 389.485 133.133,389.307 132.677,389.307 132.254 C 389.307 131.831,389.129 131.485,388.911 131.485 C 388.693 131.485,388.515 130.950,388.515 130.297 C 388.515 129.644,388.337 129.109,388.119 129.109 C 387.901 129.109,387.723 128.574,387.723 127.921 C 387.723 127.267,387.545 126.733,387.327 126.733 C 387.109 126.733,386.931 126.376,386.931 125.941 C 386.931 125.505,386.752 125.149,386.535 125.149 C 386.317 125.149,386.139 124.614,386.139 123.960 C 386.139 123.307,385.960 122.772,385.743 122.772 C 385.525 122.772,385.347 122.416,385.347 121.980 C 385.347 121.545,385.168 121.188,384.950 121.188 C 384.733 121.188,384.554 120.753,384.554 120.221 C 384.554 119.690,384.376 119.145,384.158 119.010 C 383.941 118.875,383.762 118.419,383.762 117.996 C 383.762 117.574,383.584 117.228,383.366 117.228 C 383.149 117.228,382.970 116.871,382.970 116.436 C 382.970 116.000,382.792 115.644,382.574 115.644 C 382.356 115.644,382.178 115.287,382.178 114.851 C 382.178 114.416,382.000 114.059,381.782 114.059 C 381.564 114.059,381.386 113.703,381.386 113.267 C 381.386 112.832,381.208 112.475,380.990 112.475 C 380.772 112.475,380.594 112.119,380.594 111.683 C 380.594 111.248,380.416 110.891,380.198 110.891 C 379.980 110.891,379.802 110.535,379.802 110.099 C 379.802 109.663,379.624 109.307,379.406 109.307 C 379.188 109.307,379.010 108.950,379.010 108.515 C 379.010 108.079,378.832 107.723,378.614 107.723 C 378.396 107.723,378.218 107.366,378.218 106.931 C 378.218 106.495,378.040 106.139,377.822 106.139 C 377.604 106.139,377.426 105.782,377.426 105.347 C 377.426 104.911,377.248 104.554,377.030 104.554 C 376.812 104.554,376.634 104.198,376.634 103.762 C 376.634 103.327,376.455 102.970,376.238 102.970 C 376.020 102.970,375.842 102.614,375.842 102.178 C 375.842 101.743,375.663 101.386,375.446 101.386 C 375.228 101.386,375.050 101.152,375.050 100.867 C 375.050 100.581,374.693 99.965,374.257 99.497 C 373.822 99.030,373.465 98.372,373.465 98.036 C 373.465 97.701,373.287 97.426,373.069 97.426 C 372.851 97.426,372.673 97.151,372.673 96.815 C 372.673 96.479,372.317 95.822,371.881 95.354 C 371.446 94.887,371.089 94.270,371.089 93.985 C 371.089 93.699,370.932 93.465,370.739 93.465 C 370.547 93.465,370.291 93.153,370.170 92.772 C 369.884 91.872,368.701 89.948,367.822 88.952 C 367.441 88.521,367.129 87.934,367.129 87.648 C 367.129 87.362,366.995 87.128,366.832 87.127 C 366.668 87.126,365.911 86.146,365.149 84.950 C 364.386 83.755,363.629 82.775,363.465 82.774 C 363.302 82.773,363.168 82.596,363.168 82.381 C 363.168 82.013,362.416 80.976,361.287 79.786 C 361.015 79.499,360.791 79.118,360.790 78.939 C 360.789 78.760,360.255 78.044,359.602 77.348 C 358.950 76.652,358.416 75.982,358.416 75.860 C 358.416 75.655,356.940 73.881,355.743 72.646 C 355.470 72.366,355.248 72.021,355.248 71.881 C 355.248 71.741,355.025 71.394,354.752 71.109 C 354.480 70.825,353.277 69.473,352.079 68.105 C 346.389 61.608,338.601 53.648,335.301 50.953 C 334.458 50.265,333.052 49.025,332.176 48.196 C 331.300 47.367,329.939 46.210,329.153 45.624 C 328.366 45.038,327.634 44.466,327.525 44.352 C 327.216 44.031,325.033 42.283,323.572 41.188 C 322.845 40.644,322.024 39.975,321.748 39.703 C 321.471 39.431,321.145 39.208,321.023 39.208 C 320.802 39.208,319.587 38.266,318.598 37.327 C 318.311 37.054,317.885 36.832,317.652 36.832 C 317.419 36.832,317.228 36.684,317.228 36.503 C 317.228 36.322,316.738 35.921,316.139 35.611 C 315.540 35.302,314.159 34.382,313.069 33.566 C 311.980 32.750,310.894 32.082,310.655 32.081 C 310.417 32.080,309.899 31.723,309.505 31.287 C 309.111 30.851,308.582 30.495,308.330 30.495 C 308.078 30.495,307.518 30.183,307.084 29.802 C 306.352 29.158,305.555 28.651,303.564 27.562 C 303.129 27.324,302.683 27.040,302.574 26.931 C 302.173 26.529,300.592 25.743,300.187 25.743 C 299.957 25.743,299.386 25.386,298.919 24.950 C 298.451 24.515,297.835 24.158,297.549 24.158 C 297.263 24.158,297.030 23.980,297.030 23.762 C 297.030 23.545,296.673 23.366,296.238 23.366 C 295.802 23.366,295.446 23.188,295.446 22.970 C 295.446 22.752,295.089 22.574,294.653 22.574 C 294.218 22.574,293.861 22.396,293.861 22.178 C 293.861 21.960,293.505 21.782,293.069 21.782 C 292.634 21.782,292.277 21.604,292.277 21.386 C 292.277 21.168,291.921 20.990,291.485 20.990 C 291.050 20.990,290.693 20.812,290.693 20.594 C 290.693 20.376,290.337 20.198,289.901 20.198 C 289.465 20.198,289.109 20.020,289.109 19.802 C 289.109 19.584,288.752 19.406,288.317 19.406 C 287.881 19.406,287.525 19.228,287.525 19.010 C 287.525 18.792,287.168 18.614,286.733 18.614 C 286.297 18.614,285.941 18.436,285.941 18.218 C 285.941 18.000,285.584 17.822,285.149 17.822 C 284.713 17.822,284.356 17.644,284.356 17.426 C 284.356 17.208,284.000 17.030,283.564 17.030 C 283.129 17.030,282.772 16.851,282.772 16.634 C 282.772 16.416,282.238 16.238,281.584 16.238 C 280.931 16.238,280.396 16.059,280.396 15.842 C 280.396 15.624,280.040 15.446,279.604 15.446 C 279.168 15.446,278.812 15.267,278.812 15.050 C 278.812 14.832,278.455 14.653,278.020 14.653 C 277.584 14.653,277.228 14.475,277.228 14.257 C 277.228 14.040,276.693 13.861,276.040 13.861 C 275.386 13.861,274.851 13.683,274.851 13.465 C 274.851 13.248,274.495 13.069,274.059 13.069 C 273.624 13.069,273.267 12.891,273.267 12.673 C 273.267 12.455,272.733 12.277,272.079 12.277 C 271.426 12.277,270.891 12.099,270.891 11.881 C 270.891 11.663,270.356 11.485,269.703 11.485 C 269.050 11.485,268.515 11.307,268.515 11.089 C 268.515 10.871,267.980 10.693,267.327 10.693 C 266.673 10.693,266.139 10.515,266.139 10.297 C 266.139 10.079,265.793 9.901,265.370 9.901 C 264.947 9.901,264.491 9.723,264.356 9.505 C 264.222 9.287,263.498 9.109,262.749 9.109 C 261.999 9.109,261.386 8.931,261.386 8.713 C 261.386 8.495,260.851 8.317,260.198 8.317 C 259.545 8.317,259.010 8.139,259.010 7.921 C 259.010 7.703,258.475 7.525,257.822 7.525 C 257.168 7.525,256.634 7.347,256.634 7.129 C 256.634 6.911,255.921 6.733,255.050 6.733 C 254.178 6.733,253.465 6.554,253.465 6.337 C 253.465 6.119,252.941 5.941,252.301 5.941 C 251.660 5.941,251.026 5.762,250.891 5.545 C 250.756 5.327,250.044 5.149,249.307 5.149 C 248.570 5.149,247.857 4.970,247.723 4.752 C 247.588 4.535,246.687 4.356,245.719 4.356 C 244.752 4.356,243.960 4.178,243.960 3.960 C 243.960 3.743,243.258 3.564,242.400 3.564 C 241.541 3.564,240.729 3.386,240.594 3.168 C 240.459 2.950,239.380 2.772,238.194 2.772 C 237.009 2.772,236.040 2.594,236.040 2.376 C 236.040 2.156,234.983 1.980,233.663 1.980 C 232.343 1.980,231.287 1.804,231.287 1.584 C 231.287 1.358,230.110 1.188,228.548 1.188 C 226.779 1.188,225.753 1.021,225.651 0.716 C 225.495 0.246,188.242 -0.105,178.317 0.270 M179.251 76.733 C 179.540 77.114,179.782 77.816,179.789 78.293 C 179.796 78.771,179.980 79.271,180.198 79.406 C 180.416 79.541,180.594 79.999,180.594 80.425 C 180.594 80.851,180.800 81.597,181.052 82.085 C 182.014 83.945,182.178 84.364,182.178 84.950 C 182.178 85.283,182.356 85.909,182.574 86.342 C 182.792 86.775,183.149 87.483,183.366 87.915 C 183.584 88.348,183.762 89.050,183.762 89.476 C 183.762 89.902,183.941 90.360,184.158 90.495 C 184.376 90.630,184.554 91.088,184.554 91.514 C 184.554 91.940,184.733 92.642,184.950 93.075 C 185.168 93.507,185.525 94.215,185.743 94.648 C 185.960 95.081,186.139 95.783,186.139 96.209 C 186.139 96.635,186.282 97.071,186.456 97.179 C 186.631 97.287,187.023 98.289,187.327 99.406 C 187.631 100.523,188.023 101.525,188.197 101.633 C 188.372 101.741,188.515 102.253,188.515 102.772 C 188.515 103.291,188.658 103.804,188.832 103.912 C 189.007 104.020,189.399 105.022,189.703 106.139 C 190.007 107.255,190.399 108.257,190.573 108.365 C 190.748 108.473,190.891 108.910,190.891 109.336 C 190.891 110.083,191.034 110.469,192.017 112.371 C 192.269 112.858,192.475 113.605,192.475 114.031 C 192.475 114.456,192.653 114.915,192.871 115.050 C 193.089 115.184,193.267 115.643,193.267 116.068 C 193.267 116.816,193.410 117.202,194.394 119.104 C 194.645 119.591,194.851 120.338,194.851 120.763 C 194.851 121.189,194.994 121.626,195.169 121.734 C 195.344 121.842,195.736 122.844,196.040 123.960 C 196.344 125.077,196.735 126.079,196.910 126.187 C 197.085 126.295,197.228 126.808,197.228 127.327 C 197.228 127.846,197.371 128.358,197.545 128.466 C 197.720 128.574,198.112 129.576,198.416 130.693 C 198.720 131.810,199.112 132.812,199.286 132.920 C 199.461 133.028,199.604 133.464,199.604 133.890 C 199.604 134.638,199.747 135.023,200.730 136.925 C 200.982 137.412,201.188 138.159,201.188 138.585 C 201.188 139.011,201.366 139.469,201.584 139.604 C 201.802 139.739,201.980 140.197,201.980 140.623 C 201.980 141.049,202.186 141.795,202.438 142.283 C 203.421 144.185,203.564 144.570,203.564 145.318 C 203.564 145.744,203.707 146.180,203.882 146.288 C 204.057 146.396,204.448 147.398,204.752 148.515 C 205.057 149.632,205.448 150.634,205.623 150.742 C 205.798 150.850,205.941 151.286,205.941 151.712 C 205.941 152.138,206.119 152.840,206.337 153.273 C 206.554 153.705,206.911 154.413,207.129 154.846 C 207.347 155.279,207.525 155.981,207.525 156.407 C 207.525 156.833,207.703 157.291,207.921 157.426 C 208.139 157.560,208.317 158.019,208.317 158.445 C 208.317 158.870,208.523 159.617,208.775 160.104 C 209.758 162.006,209.901 162.392,209.901 163.140 C 209.901 163.565,210.079 164.024,210.297 164.158 C 210.515 164.293,210.693 164.752,210.693 165.177 C 210.693 165.603,210.899 166.350,211.151 166.837 C 212.134 168.739,212.277 169.125,212.277 169.872 C 212.277 170.298,212.455 170.756,212.673 170.891 C 212.891 171.026,213.069 171.484,213.069 171.910 C 213.069 172.336,213.248 173.038,213.465 173.471 C 213.683 173.903,214.040 174.611,214.257 175.044 C 214.475 175.477,214.653 176.179,214.653 176.605 C 214.653 177.031,214.832 177.489,215.050 177.624 C 215.267 177.758,215.446 178.293,215.446 178.812 C 215.446 179.331,215.624 179.865,215.842 180.000 C 216.105 180.163,216.238 162.776,216.238 128.142 L 216.238 76.040 240.792 76.040 L 265.347 76.040 265.347 198.468 L 265.347 320.896 263.861 320.614 C 263.045 320.459,260.861 320.165,259.010 319.960 C 257.158 319.756,254.129 319.409,252.277 319.191 C 248.876 318.789,243.508 318.316,234.455 317.618 C 231.733 317.408,226.277 317.124,222.333 316.987 L 215.160 316.737 214.550 315.299 C 214.214 314.508,213.556 312.703,213.089 311.287 C 212.622 309.871,212.070 308.403,211.862 308.025 C 211.655 307.647,211.485 307.008,211.485 306.606 C 211.485 306.204,211.367 305.756,211.222 305.612 C 210.935 305.324,210.004 302.818,208.477 298.218 C 207.935 296.584,207.330 294.891,207.132 294.455 C 206.934 294.020,206.504 292.861,206.175 291.881 C 204.562 287.072,203.265 283.529,203.031 283.295 C 202.889 283.153,202.772 282.656,202.772 282.191 C 202.772 281.727,202.630 281.177,202.457 280.970 C 202.284 280.763,201.916 279.881,201.639 279.010 C 201.113 277.352,200.544 275.919,199.954 274.758 C 199.761 274.380,199.604 273.722,199.604 273.296 C 199.604 272.870,199.426 272.412,199.208 272.277 C 198.990 272.143,198.812 271.684,198.812 271.258 C 198.812 270.833,198.634 270.130,198.416 269.698 C 198.198 269.265,197.842 268.557,197.624 268.124 C 197.406 267.691,197.228 266.989,197.228 266.563 C 197.228 266.138,197.085 265.701,196.910 265.593 C 196.735 265.485,196.344 264.483,196.040 263.366 C 195.736 262.250,195.344 261.248,195.169 261.140 C 194.994 261.032,194.851 260.544,194.851 260.056 C 194.851 259.568,194.704 258.999,194.524 258.792 C 194.344 258.585,193.956 257.614,193.661 256.634 C 193.366 255.653,193.011 254.673,192.871 254.455 C 192.732 254.238,192.377 253.257,192.082 252.277 C 191.787 251.297,191.398 250.326,191.218 250.119 C 191.038 249.912,190.891 249.343,190.891 248.855 C 190.891 248.367,190.713 247.857,190.495 247.723 C 190.277 247.588,190.099 247.053,190.099 246.535 C 190.099 246.016,189.956 245.503,189.781 245.395 C 189.607 245.287,189.215 244.285,188.911 243.168 C 188.607 242.052,188.215 241.050,188.040 240.942 C 187.866 240.834,187.723 240.397,187.723 239.971 C 187.723 239.546,187.545 238.843,187.327 238.410 C 187.109 237.978,186.752 237.270,186.535 236.837 C 186.317 236.404,186.139 235.702,186.139 235.276 C 186.139 234.851,185.996 234.414,185.821 234.306 C 185.646 234.198,185.255 233.196,184.950 232.079 C 184.646 230.962,184.255 229.960,184.080 229.853 C 183.905 229.745,183.762 229.232,183.762 228.713 C 183.762 228.194,183.619 227.681,183.445 227.573 C 183.270 227.465,182.878 226.463,182.574 225.347 C 182.270 224.230,181.878 223.228,181.704 223.120 C 181.529 223.012,181.386 222.499,181.386 221.980 C 181.386 221.461,181.208 220.927,180.990 220.792 C 180.772 220.657,180.594 220.199,180.594 219.773 C 180.594 219.347,180.429 218.690,180.227 218.311 C 180.025 217.933,179.713 217.267,179.534 216.832 C 179.355 216.396,179.163 238.704,179.107 266.406 L 179.007 316.771 175.741 317.019 C 173.945 317.155,169.089 317.348,164.950 317.448 C 160.812 317.549,157.069 317.801,156.634 318.009 C 156.198 318.217,154.505 318.486,152.871 318.607 C 143.006 319.335,140.108 319.599,137.624 319.995 C 136.099 320.238,133.738 320.532,132.376 320.648 L 129.901 320.860 129.901 198.450 L 129.901 76.040 154.313 76.040 C 177.098 76.040,178.760 76.086,179.251 76.733 " stroke="none" fill="#040404" fill-rule="evenodd"></path><path id="path2" d="M130.398 198.119 L 130.495 319.802 132.475 319.845 C 134.259 319.883,134.289 319.871,132.769 319.723 L 131.083 319.558 131.040 199.086 C 130.993 68.578,131.021 76.436,130.596 76.436 C 130.434 76.436,130.344 131.193,130.398 198.119 M216.829 77.327 C 216.711 77.817,216.664 93.723,216.725 112.673 L 216.836 147.129 216.933 112.221 C 217.020 80.811,217.092 77.288,217.656 77.072 C 218.001 76.940,228.693 76.832,241.418 76.832 L 264.553 76.832 264.653 198.119 L 264.754 319.406 264.852 197.921 L 264.950 76.436 240.998 76.436 L 217.045 76.436 216.829 77.327 M132.909 86.763 C 133.217 88.086,133.843 90.536,134.298 92.208 C 134.754 93.880,135.288 96.050,135.485 97.030 C 135.682 98.010,136.122 99.792,136.464 100.990 C 136.805 102.188,137.251 103.837,137.453 104.653 C 138.053 107.070,138.682 109.427,139.056 110.653 C 139.249 111.285,139.406 112.299,139.406 112.907 C 139.406 113.515,139.584 114.123,139.802 114.257 C 140.020 114.392,140.198 115.080,140.198 115.786 C 140.198 116.492,140.348 117.239,140.530 117.446 C 140.713 117.652,141.099 118.891,141.389 120.198 C 141.678 121.505,142.042 122.752,142.198 122.970 C 142.353 123.188,142.574 123.990,142.688 124.752 C 142.802 125.515,143.287 127.475,143.765 129.109 C 144.243 130.743,144.782 132.703,144.963 133.465 C 145.145 134.228,145.679 136.188,146.152 137.822 C 146.964 140.634,147.147 141.332,148.069 145.149 C 149.032 149.132,150.038 152.848,150.243 153.180 C 150.529 153.643,153.586 165.380,156.042 175.446 C 156.228 176.208,156.641 177.812,156.958 179.010 C 157.276 180.208,157.843 182.347,158.218 183.762 C 158.593 185.178,159.159 187.317,159.477 188.515 C 159.795 189.713,160.216 191.317,160.413 192.079 C 161.293 195.488,162.214 198.629,163.953 204.158 C 164.981 207.426,166.492 212.238,167.312 214.851 C 168.132 217.465,168.961 219.773,169.154 219.980 C 169.347 220.187,169.505 220.756,169.505 221.244 C 169.505 221.732,169.683 222.242,169.901 222.376 C 170.119 222.511,170.297 223.046,170.297 223.564 C 170.297 224.083,170.475 224.618,170.693 224.752 C 170.911 224.887,171.089 225.422,171.089 225.941 C 171.089 226.459,171.267 226.994,171.485 227.129 C 171.703 227.263,171.881 227.798,171.881 228.317 C 171.881 228.836,172.059 229.370,172.277 229.505 C 172.495 229.640,172.673 230.174,172.673 230.693 C 172.673 231.212,172.851 231.747,173.069 231.881 C 173.287 232.016,173.465 232.472,173.465 232.895 C 173.465 233.317,173.644 233.663,173.861 233.663 C 174.079 233.663,174.257 234.022,174.257 234.461 C 174.257 234.899,174.413 235.568,174.602 235.946 C 174.792 236.324,175.638 238.772,176.483 241.386 L 178.020 246.139 178.127 280.841 L 178.235 315.544 173.177 315.934 L 168.119 316.323 173.267 316.281 L 178.416 316.238 178.416 264.950 C 178.416 224.132,178.517 213.684,178.911 213.762 C 179.510 213.882,179.557 213.379,179.000 212.821 C 178.611 212.433,177.244 208.944,175.993 205.149 C 175.670 204.168,175.245 203.010,175.050 202.574 C 174.854 202.139,174.426 200.980,174.100 200.000 C 173.774 199.020,172.771 196.168,171.872 193.663 C 170.973 191.158,170.089 188.663,169.908 188.119 C 169.727 187.574,168.655 184.545,167.525 181.386 C 166.395 178.228,165.325 175.198,165.149 174.653 C 164.972 174.109,163.902 171.079,162.772 167.921 C 161.642 164.762,160.570 161.733,160.390 161.188 C 160.209 160.644,159.671 159.129,159.194 157.822 C 158.055 154.704,154.472 144.632,154.052 143.366 C 153.871 142.822,153.018 140.416,152.155 138.020 C 149.400 130.368,139.124 101.694,138.033 98.614 C 135.986 92.837,134.865 89.904,134.211 88.619 C 134.019 88.241,133.861 87.573,133.861 87.134 C 133.861 86.695,133.683 86.337,133.465 86.337 C 133.248 86.337,133.069 85.891,133.069 85.347 C 133.069 84.802,132.907 84.356,132.708 84.356 C 132.510 84.356,132.600 85.439,132.909 86.763 M216.961 166.139 C 216.860 179.180,216.725 182.751,216.337 182.673 C 215.693 182.545,215.712 182.801,216.429 183.894 C 216.995 184.759,218.684 189.138,220.196 193.663 C 220.596 194.861,221.820 198.337,222.916 201.386 C 224.012 204.436,226.174 210.495,227.720 214.851 C 229.267 219.208,231.673 225.980,233.067 229.901 C 235.455 236.616,241.093 252.511,246.133 266.733 C 247.368 270.218,249.507 276.188,250.888 280.000 C 252.268 283.812,254.316 289.515,255.438 292.673 C 257.692 299.015,258.916 302.362,259.418 303.564 C 259.601 304.000,259.976 305.069,260.253 305.941 C 260.529 306.812,260.898 307.694,261.071 307.901 C 261.244 308.108,261.386 308.687,261.386 309.188 C 261.386 309.689,261.564 310.099,261.782 310.099 C 262.000 310.099,262.178 310.580,262.178 311.168 C 262.178 311.870,262.312 312.104,262.568 311.848 C 262.824 311.592,262.474 309.624,261.550 306.125 C 260.776 303.192,259.979 299.990,259.779 299.010 C 259.580 298.030,259.044 295.891,258.590 294.257 C 258.135 292.624,257.504 290.218,257.188 288.911 C 256.872 287.604,256.440 285.987,256.228 285.318 C 256.015 284.649,255.842 283.660,255.842 283.120 C 255.842 282.580,255.692 281.969,255.509 281.762 C 255.327 281.555,254.940 280.317,254.651 279.010 C 254.361 277.703,253.999 276.455,253.845 276.238 C 253.691 276.020,253.464 275.307,253.341 274.653 C 253.219 274.000,252.929 272.708,252.698 271.782 C 252.466 270.856,252.112 269.431,251.910 268.614 C 251.709 267.797,251.166 265.792,250.704 264.158 C 250.241 262.525,249.592 260.119,249.261 258.812 C 248.930 257.505,248.504 256.079,248.314 255.644 C 248.025 254.981,245.965 247.094,244.746 241.980 C 244.564 241.218,243.980 239.079,243.447 237.228 C 242.915 235.376,242.258 232.970,241.988 231.881 C 241.718 230.792,241.184 228.743,240.802 227.327 C 240.419 225.911,239.887 223.772,239.620 222.574 C 239.353 221.376,238.889 219.505,238.590 218.416 C 238.291 217.327,237.778 215.455,237.450 214.257 C 237.122 213.059,236.567 210.832,236.218 209.307 C 235.869 207.782,235.266 205.465,234.878 204.158 C 232.797 197.145,231.111 191.747,230.674 190.693 C 230.403 190.040,230.058 188.748,229.907 187.822 C 229.757 186.896,229.503 186.139,229.343 186.139 C 229.183 186.139,228.808 184.970,228.510 183.541 C 228.212 182.112,227.824 180.854,227.647 180.745 C 227.471 180.636,227.327 180.123,227.327 179.604 C 227.327 179.085,227.149 178.550,226.931 178.416 C 226.713 178.281,226.535 177.747,226.535 177.228 C 226.535 176.709,226.381 176.189,226.193 176.073 C 226.005 175.957,225.629 175.011,225.358 173.971 C 225.087 172.930,224.630 171.545,224.344 170.891 C 224.058 170.238,223.704 169.168,223.558 168.515 C 223.412 167.861,223.055 166.792,222.766 166.139 C 222.476 165.485,222.120 164.416,221.973 163.762 C 221.827 163.109,221.280 161.669,220.758 160.562 C 220.236 159.455,219.693 157.940,219.552 157.195 C 219.410 156.451,219.151 155.657,218.976 155.431 C 218.801 155.206,218.305 153.780,217.874 152.263 L 217.091 149.505 216.961 166.139 M215.174 315.050 C 215.236 315.664,215.565 315.853,216.637 315.893 C 217.975 315.943,217.979 315.939,216.757 315.771 C 216.022 315.670,215.411 315.317,215.295 314.927 C 215.150 314.443,215.117 314.476,215.174 315.050 M220.502 316.327 C 221.214 316.415,222.283 316.413,222.878 316.323 C 223.473 316.232,222.891 316.160,221.584 316.162 C 220.277 316.165,219.790 316.238,220.502 316.327 M159.406 316.832 C 159.127 317.282,161.220 317.287,165.149 316.846 C 167.650 316.565,167.609 316.555,163.687 316.496 C 161.355 316.461,159.547 316.603,159.406 316.832 M228.825 316.728 C 229.976 316.808,231.758 316.807,232.786 316.726 C 233.813 316.645,232.871 316.579,230.693 316.580 C 228.515 316.581,227.674 316.648,228.825 316.728 M151.485 317.640 C 150.975 317.870,151.608 317.911,153.267 317.758 C 154.683 317.626,155.916 317.453,156.007 317.373 C 156.361 317.061,152.231 317.304,151.485 317.640 M239.708 317.512 C 240.310 317.603,241.202 317.601,241.689 317.507 C 242.176 317.413,241.683 317.338,240.594 317.341 C 239.505 317.344,239.106 317.421,239.708 317.512 M141.963 318.444 C 141.780 318.740,142.580 318.784,144.613 318.590 C 148.397 318.230,148.554 318.020,145.040 318.020 C 143.467 318.020,142.109 318.207,141.963 318.444 M248.621 318.307 C 249.333 318.395,250.402 318.393,250.997 318.303 C 251.592 318.212,251.010 318.140,249.703 318.143 C 248.396 318.145,247.909 318.219,248.621 318.307 M137.030 319.128 C 137.030 319.302,137.653 319.372,138.416 319.283 C 139.178 319.194,139.802 319.052,139.802 318.967 C 139.802 318.881,139.178 318.812,138.416 318.812 C 137.653 318.812,137.030 318.954,137.030 319.128 M255.941 319.096 C 256.540 319.186,257.520 319.186,258.119 319.096 C 258.718 319.005,258.228 318.931,257.030 318.931 C 255.832 318.931,255.342 319.005,255.941 319.096 M262.283 319.888 C 262.885 319.979,263.776 319.977,264.263 319.883 C 264.750 319.789,264.257 319.714,263.168 319.717 C 262.079 319.720,261.681 319.797,262.283 319.888 " stroke="none" fill="#88040c" fill-rule="evenodd"></path><path id="path3" d="M142.475 76.336 C 149.064 76.397,159.847 76.397,166.436 76.336 C 173.025 76.275,167.634 76.226,154.455 76.226 C 141.277 76.226,135.886 76.275,142.475 76.336 M216.817 76.459 C 216.673 76.693,216.661 76.991,216.792 77.122 C 216.923 77.253,217.030 77.152,217.030 76.898 C 217.030 76.551,222.998 76.436,240.989 76.436 L 264.949 76.436 265.050 198.020 L 265.150 319.604 265.149 197.921 L 265.149 76.238 241.114 76.136 C 224.308 76.064,217.001 76.161,216.817 76.459 M216.722 164.752 C 216.656 176.567,216.489 182.568,216.238 182.178 C 216.007 181.821,215.851 181.772,215.848 182.056 C 215.839 182.756,216.608 183.102,216.839 182.500 C 216.948 182.214,216.990 174.050,216.931 164.356 L 216.823 146.733 216.722 164.752 M178.397 213.966 C 178.291 214.242,178.255 219.276,178.317 225.154 L 178.429 235.842 178.522 224.828 C 178.590 216.624,178.730 213.887,179.071 214.097 C 179.354 214.272,179.421 214.206,179.246 213.923 C 178.880 213.332,178.635 213.344,178.397 213.966 M172.871 316.436 L 167.327 316.668 172.749 316.750 C 176.028 316.799,178.268 316.675,178.416 316.436 C 178.550 316.218,178.606 316.076,178.538 316.122 C 178.471 316.167,175.921 316.308,172.871 316.436 M216.931 316.319 C 217.421 316.413,218.223 316.413,218.713 316.319 C 219.203 316.225,218.802 316.147,217.822 316.147 C 216.842 316.147,216.441 316.225,216.931 316.319 M221.893 316.727 C 222.934 316.809,224.538 316.808,225.457 316.725 C 226.377 316.642,225.525 316.575,223.564 316.576 C 221.604 316.577,220.852 316.645,221.893 316.727 M164.059 317.115 C 164.658 317.206,165.639 317.206,166.238 317.115 C 166.837 317.025,166.347 316.950,165.149 316.950 C 163.950 316.950,163.460 317.025,164.059 317.115 M233.366 317.105 C 233.748 317.204,234.371 317.204,234.752 317.105 C 235.134 317.005,234.822 316.924,234.059 316.924 C 233.297 316.924,232.985 317.005,233.366 317.105 M156.931 317.511 C 157.530 317.602,158.510 317.602,159.109 317.511 C 159.708 317.421,159.218 317.346,158.020 317.346 C 156.822 317.346,156.332 317.421,156.931 317.511 M236.337 317.507 C 236.827 317.602,237.629 317.602,238.119 317.507 C 238.609 317.413,238.208 317.336,237.228 317.336 C 236.248 317.336,235.847 317.413,236.337 317.507 M150.297 318.020 L 147.525 318.276 149.901 318.317 C 151.208 318.339,153.079 318.214,154.059 318.040 C 156.322 317.637,154.540 317.628,150.297 318.020 M244.455 318.303 C 245.054 318.394,246.035 318.394,246.634 318.303 C 247.233 318.213,246.743 318.138,245.545 318.138 C 244.347 318.138,243.856 318.213,244.455 318.303 M141.980 318.812 L 139.604 319.075 141.584 319.112 C 142.673 319.132,144.366 319.007,145.347 318.832 C 147.647 318.423,145.608 318.410,141.980 318.812 M253.168 319.085 C 253.550 319.184,254.173 319.184,254.554 319.085 C 254.936 318.985,254.624 318.904,253.861 318.904 C 253.099 318.904,252.787 318.985,253.168 319.085 M135.842 319.604 L 134.059 319.881 135.644 319.894 C 136.515 319.901,137.762 319.770,138.416 319.604 C 140.000 319.201,138.435 319.201,135.842 319.604 M258.614 319.604 C 259.158 319.778,260.050 319.918,260.594 319.914 C 261.483 319.907,261.463 319.876,260.396 319.604 C 258.721 319.178,257.283 319.178,258.614 319.604 M130.297 320.080 C 130.297 320.254,130.921 320.396,131.683 320.396 C 132.446 320.396,133.069 320.326,133.069 320.241 C 133.069 320.156,132.446 320.014,131.683 319.925 C 130.921 319.836,130.297 319.905,130.297 320.080 " stroke="none" fill="#5c0407" fill-rule="evenodd"></path><path id="path4" d="M130.165 76.304 C 129.519 76.949,129.872 320.410,130.519 320.658 C 130.859 320.789,132.062 320.711,133.193 320.485 L 135.248 320.074 132.771 320.286 L 130.294 320.499 130.395 198.269 C 130.450 131.043,130.480 76.040,130.462 76.040 C 130.444 76.040,130.310 76.158,130.165 76.304 M216.428 116.832 C 216.428 138.941,216.476 147.985,216.535 136.931 C 216.593 125.876,216.593 107.787,216.535 96.733 C 216.476 85.678,216.428 94.723,216.428 116.832 M180.214 80.648 C 180.205 80.895,180.458 81.697,180.777 82.430 C 181.095 83.163,181.362 83.560,181.371 83.313 C 181.379 83.066,181.126 82.264,180.808 81.531 C 180.489 80.798,180.222 80.400,180.214 80.648 M184.174 91.737 C 184.165 91.984,184.419 92.786,184.737 93.519 C 185.055 94.252,185.323 94.649,185.331 94.402 C 185.340 94.155,185.086 93.353,184.768 92.620 C 184.450 91.887,184.182 91.489,184.174 91.737 M192.887 116.291 C 192.878 116.538,193.132 117.340,193.450 118.073 C 193.768 118.806,194.035 119.204,194.044 118.956 C 194.052 118.709,193.799 117.907,193.481 117.174 C 193.163 116.441,192.895 116.044,192.887 116.291 M215.673 180.594 C 215.818 181.139,216.103 181.851,216.304 182.178 C 216.560 182.591,216.591 182.470,216.407 181.782 C 216.261 181.238,215.977 180.525,215.775 180.198 C 215.520 179.785,215.489 179.906,215.673 180.594 M178.518 265.264 C 178.462 293.604,178.547 316.661,178.707 316.501 C 179.033 316.175,179.152 214.267,178.827 213.942 C 178.713 213.828,178.574 236.923,178.518 265.264 M179.817 216.885 C 179.809 217.132,180.062 217.934,180.381 218.667 C 180.699 219.400,180.966 219.798,180.975 219.550 C 180.983 219.303,180.730 218.501,180.412 217.768 C 180.093 217.035,179.826 216.638,179.817 216.885 M199.619 272.727 C 199.611 272.974,199.864 273.776,200.183 274.509 C 200.501 275.242,200.768 275.639,200.777 275.392 C 200.785 275.145,200.532 274.343,200.214 273.610 C 199.895 272.877,199.628 272.480,199.619 272.727 M215.680 316.495 C 215.795 316.680,216.903 316.818,218.142 316.800 C 220.748 316.764,220.502 316.572,217.538 316.328 C 216.402 316.235,215.566 316.310,215.680 316.495 M163.564 317.228 L 159.802 317.472 163.366 317.499 C 165.327 317.513,168.178 317.397,169.703 317.241 L 172.475 316.956 169.901 316.970 C 168.485 316.977,165.634 317.093,163.564 317.228 M231.683 317.248 C 232.663 317.422,234.000 317.556,234.653 317.545 C 235.530 317.530,235.374 317.441,234.059 317.208 C 233.079 317.033,231.743 316.899,231.089 316.911 C 230.213 316.926,230.369 317.014,231.683 317.248 M154.257 318.020 L 152.673 318.303 154.059 318.354 C 154.822 318.381,155.713 318.231,156.040 318.020 C 156.688 317.601,156.596 317.601,154.257 318.020 M240.990 318.001 C 241.750 318.346,243.872 318.570,243.531 318.270 C 243.441 318.190,242.653 318.016,241.782 317.884 C 240.678 317.716,240.438 317.751,240.990 318.001 M145.545 318.812 L 143.960 319.096 145.347 319.122 C 146.109 319.137,147.535 319.007,148.515 318.832 L 150.297 318.515 148.713 318.522 C 147.842 318.525,146.416 318.656,145.545 318.812 M250.099 318.793 C 250.859 319.138,252.981 319.362,252.640 319.062 C 252.550 318.982,251.762 318.808,250.891 318.676 C 249.787 318.508,249.547 318.543,250.099 318.793 M138.416 319.604 L 137.228 319.906 138.293 319.953 C 138.880 319.979,139.469 319.822,139.604 319.604 C 139.739 319.386,139.794 319.229,139.726 319.255 C 139.659 319.281,139.069 319.438,138.416 319.604 M257.228 319.604 C 257.663 319.791,258.376 319.939,258.812 319.933 C 259.449 319.923,259.410 319.859,258.614 319.604 C 257.260 319.170,256.219 319.170,257.228 319.604 M264.950 319.980 C 264.950 320.294,264.647 320.409,264.158 320.281 C 263.722 320.167,263.465 320.235,263.587 320.433 C 263.709 320.630,264.055 320.792,264.356 320.792 C 264.983 320.792,265.543 320.064,265.188 319.710 C 265.057 319.579,264.950 319.701,264.950 319.980 " stroke="none" fill="#280404" fill-rule="evenodd"></path><path id="path5" d="M216.150 168.730 C 216.089 175.274,216.161 180.932,216.309 181.304 C 216.457 181.676,216.591 176.322,216.606 169.406 C 216.621 162.490,216.550 156.832,216.447 156.832 C 216.344 156.832,216.211 162.186,216.150 168.730 M169.901 317.228 L 167.327 317.487 169.703 317.549 C 171.010 317.584,172.347 317.439,172.673 317.228 C 173.000 317.017,173.089 316.872,172.871 316.906 C 172.653 316.940,171.317 317.085,169.901 317.228 M228.024 317.112 C 228.517 317.207,229.230 317.203,229.609 317.104 C 229.987 317.005,229.584 316.927,228.713 316.932 C 227.842 316.936,227.532 317.017,228.024 317.112 M230.990 317.501 C 231.371 317.600,231.995 317.600,232.376 317.501 C 232.757 317.401,232.446 317.320,231.683 317.320 C 230.921 317.320,230.609 317.401,230.990 317.501 M239.604 318.020 C 240.958 318.453,241.999 318.453,240.990 318.020 C 240.554 317.833,239.842 317.685,239.406 317.691 C 238.769 317.700,238.808 317.765,239.604 318.020 M147.822 319.085 C 148.203 319.184,148.827 319.184,149.208 319.085 C 149.589 318.985,149.277 318.904,148.515 318.904 C 147.752 318.904,147.441 318.985,147.822 319.085 M255.842 319.604 C 257.196 320.038,258.237 320.038,257.228 319.604 C 256.792 319.417,256.079 319.269,255.644 319.275 C 255.007 319.285,255.046 319.349,255.842 319.604 " stroke="none" fill="#140404" fill-rule="evenodd"></path></g></svg>